solid CATIA STL
  facet normal  0.000000e+000  1.000000e+000  0.000000e+000
    outer loop
      vertex  1.500000e+001  1.500000e+001  0.000000e+000
      vertex  3.000000e+001  1.500000e+001  0.000000e+000
      vertex  1.500000e+001  1.500000e+001 -1.500000e+001
    endloop
  endfacet
  facet normal  0.000000e+000  1.000000e+000  0.000000e+000
    outer loop
      vertex  1.500000e+001  1.500000e+001 -1.500000e+001
      vertex  3.000000e+001  1.500000e+001  0.000000e+000
      vertex  3.000000e+001  1.500000e+001 -1.500000e+001
    endloop
  endfacet
  facet normal  1.000000e+000  0.000000e+000  0.000000e+000
    outer loop
      vertex  3.000000e+001 -1.500000e+001 -1.500000e+001
      vertex  3.000000e+001  1.500000e+001 -1.500000e+001
      vertex  3.000000e+001 -1.500000e+001  0.000000e+000
    endloop
  endfacet
  facet normal  1.000000e+000  -0.000000e+000  0.000000e+000
    outer loop
      vertex  3.000000e+001 -1.500000e+001  0.000000e+000
      vertex  3.000000e+001  1.500000e+001 -1.500000e+001
      vertex  3.000000e+001  1.500000e+001  0.000000e+000
    endloop
  endfacet
  facet normal  0.000000e+000 -1.000000e+000  0.000000e+000
    outer loop
      vertex  3.000000e+001 -1.500000e+001  0.000000e+000
      vertex  1.500000e+001 -1.500000e+001  0.000000e+000
      vertex  3.000000e+001 -1.500000e+001 -1.500000e+001
    endloop
  endfacet
  facet normal  0.000000e+000 -1.000000e+000  0.000000e+000
    outer loop
      vertex  3.000000e+001 -1.500000e+001 -1.500000e+001
      vertex  1.500000e+001 -1.500000e+001  0.000000e+000
      vertex  1.500000e+001 -1.500000e+001 -1.500000e+001
    endloop
  endfacet
  facet normal -1.000000e+000  0.000000e+000  0.000000e+000
    outer loop
      vertex  1.500000e+001  1.500000e+001  0.000000e+000
      vertex  1.500000e+001  1.500000e+001 -1.500000e+001
      vertex  1.500000e+001 -1.500000e+001  0.000000e+000
    endloop
  endfacet
  facet normal -1.000000e+000  0.000000e+000  0.000000e+000
    outer loop
      vertex  1.500000e+001 -1.500000e+001  0.000000e+000
      vertex  1.500000e+001  1.500000e+001 -1.500000e+001
      vertex  1.500000e+001 -1.500000e+001 -1.500000e+001
    endloop
  endfacet
  facet normal  8.291399e-001  0.000000e+000 -5.590413e-001
    outer loop
      vertex  3.000000e+001  1.500000e+001 -1.500000e+001
      vertex  3.000000e+001 -1.500000e+001 -1.500000e+001
      vertex  7.750000e+000  2.500000e-001 -4.800000e+001
    endloop
  endfacet
  facet normal  8.291398e-001  0.000000e+000 -5.590413e-001
    outer loop
      vertex  7.750000e+000  2.500000e-001 -4.800000e+001
      vertex  3.000000e+001 -1.500000e+001 -1.500000e+001
      vertex  7.750000e+000 -2.500000e-001 -4.800000e+001
    endloop
  endfacet
  facet normal  0.000000e+000  9.129539e-001 -4.080627e-001
    outer loop
      vertex  1.500000e+001  1.500000e+001 -1.500000e+001
      vertex  3.000000e+001  1.500000e+001 -1.500000e+001
      vertex  7.250000e+000  2.500000e-001 -4.800000e+001
    endloop
  endfacet
  facet normal  0.000000e+000  9.129539e-001 -4.080627e-001
    outer loop
      vertex  7.250000e+000  2.500000e-001 -4.800000e+001
      vertex  3.000000e+001  1.500000e+001 -1.500000e+001
      vertex  7.750000e+000  2.500000e-001 -4.800000e+001
    endloop
  endfacet
  facet normal  0.000000e+000 -9.129539e-001 -4.080627e-001
    outer loop
      vertex  3.000000e+001 -1.500000e+001 -1.500000e+001
      vertex  1.500000e+001 -1.500000e+001 -1.500000e+001
      vertex  7.750000e+000 -2.500000e-001 -4.800000e+001
    endloop
  endfacet
  facet normal  -0.000000e+000 -9.129539e-001 -4.080627e-001
    outer loop
      vertex  7.750000e+000 -2.500000e-001 -4.800000e+001
      vertex  1.500000e+001 -1.500000e+001 -1.500000e+001
      vertex  7.250000e+000 -2.500000e-001 -4.800000e+001
    endloop
  endfacet
  facet normal -9.735138e-001  0.000000e+000  2.286282e-001
    outer loop
      vertex  1.500000e+001 -1.500000e+001 -1.500000e+001
      vertex  1.500000e+001  1.500000e+001 -1.500000e+001
      vertex  7.250000e+000 -2.500000e-001 -4.800000e+001
    endloop
  endfacet
  facet normal -9.735138e-001  0.000000e+000  2.286282e-001
    outer loop
      vertex  7.250000e+000 -2.500000e-001 -4.800000e+001
      vertex  1.500000e+001  1.500000e+001 -1.500000e+001
      vertex  7.250000e+000  2.500000e-001 -4.800000e+001
    endloop
  endfacet
  facet normal  0.000000e+000  0.000000e+000 -1.000000e+000
    outer loop
      vertex  7.250000e+000 -2.500000e-001 -4.800000e+001
      vertex  7.250000e+000  2.500000e-001 -4.800000e+001
      vertex  7.750000e+000 -2.500000e-001 -4.800000e+001
    endloop
  endfacet
  facet normal  0.000000e+000  0.000000e+000 -1.000000e+000
    outer loop
      vertex  7.750000e+000 -2.500000e-001 -4.800000e+001
      vertex  7.250000e+000  2.500000e-001 -4.800000e+001
      vertex  7.750000e+000  2.500000e-001 -4.800000e+001
    endloop
  endfacet
  facet normal  0.000000e+000  0.000000e+000  1.000000e+000
    outer loop
      vertex  1.500000e+001 -1.500000e+001  0.000000e+000
      vertex  3.000000e+001 -1.500000e+001  0.000000e+000
      vertex  1.500000e+001  1.500000e+001  0.000000e+000
    endloop
  endfacet
  facet normal  -0.000000e+000  0.000000e+000  1.000000e+000
    outer loop
      vertex  1.500000e+001  1.500000e+001  0.000000e+000
      vertex  3.000000e+001 -1.500000e+001  0.000000e+000
      vertex  3.000000e+001  1.500000e+001  0.000000e+000
    endloop
  endfacet
endsolid CATIA STL
