solid CATIA STL
  facet normal  0.000000e+000  0.000000e+000  1.000000e+000
    outer loop
      vertex  1.500000e+001 -1.500000e+001  0.000000e+000
      vertex  3.000000e+001 -1.500000e+001  0.000000e+000
      vertex  1.500000e+001  1.500000e+001  0.000000e+000
    endloop
  endfacet
  facet normal  -0.000000e+000  0.000000e+000  1.000000e+000
    outer loop
      vertex  1.500000e+001  1.500000e+001  0.000000e+000
      vertex  3.000000e+001 -1.500000e+001  0.000000e+000
      vertex  3.000000e+001  1.500000e+001  0.000000e+000
    endloop
  endfacet
  facet normal -1.000000e+000  0.000000e+000  0.000000e+000
    outer loop
      vertex  1.500000e+001  1.500000e+001  0.000000e+000
      vertex  1.500000e+001  1.500000e+001 -5.208099e+001
      vertex  1.500000e+001 -1.500000e+001  0.000000e+000
    endloop
  endfacet
  facet normal -1.000000e+000  0.000000e+000  0.000000e+000
    outer loop
      vertex  1.500000e+001 -1.500000e+001  0.000000e+000
      vertex  1.500000e+001  1.500000e+001 -5.208099e+001
      vertex  1.500000e+001 -1.500000e+001 -5.208099e+001
    endloop
  endfacet
  facet normal  0.000000e+000 -1.000000e+000  0.000000e+000
    outer loop
      vertex  3.000000e+001 -1.500000e+001  0.000000e+000
      vertex  1.500000e+001 -1.500000e+001  0.000000e+000
      vertex  3.000000e+001 -1.500000e+001 -1.500000e+001
    endloop
  endfacet
  facet normal  -0.000000e+000 -1.000000e+000  0.000000e+000
    outer loop
      vertex  3.000000e+001 -1.500000e+001 -1.500000e+001
      vertex  1.500000e+001 -1.500000e+001  0.000000e+000
      vertex  1.500000e+001 -1.500000e+001 -5.208099e+001
    endloop
  endfacet
  facet normal  0.000000e+000  1.000000e+000  0.000000e+000
    outer loop
      vertex  1.500000e+001  1.500000e+001  0.000000e+000
      vertex  3.000000e+001  1.500000e+001  0.000000e+000
      vertex  1.500000e+001  1.500000e+001 -5.208099e+001
    endloop
  endfacet
  facet normal  0.000000e+000  1.000000e+000  0.000000e+000
    outer loop
      vertex  1.500000e+001  1.500000e+001 -5.208099e+001
      vertex  3.000000e+001  1.500000e+001  0.000000e+000
      vertex  3.000000e+001  1.500000e+001 -1.500000e+001
    endloop
  endfacet
  facet normal  9.270248e-001  0.000000e+000 -3.750000e-001
    outer loop
      vertex  1.500000e+001 -1.500000e+001 -5.208099e+001
      vertex  1.500000e+001  1.500000e+001 -5.208099e+001
      vertex  3.000000e+001 -1.500000e+001 -1.500000e+001
    endloop
  endfacet
  facet normal  9.270248e-001  0.000000e+000 -3.750000e-001
    outer loop
      vertex  3.000000e+001 -1.500000e+001 -1.500000e+001
      vertex  1.500000e+001  1.500000e+001 -5.208099e+001
      vertex  3.000000e+001  1.500000e+001 -1.500000e+001
    endloop
  endfacet
  facet normal  1.000000e+000  0.000000e+000  0.000000e+000
    outer loop
      vertex  3.000000e+001 -1.500000e+001 -1.500000e+001
      vertex  3.000000e+001  1.500000e+001 -1.500000e+001
      vertex  3.000000e+001 -1.500000e+001  0.000000e+000
    endloop
  endfacet
  facet normal  1.000000e+000  -0.000000e+000  0.000000e+000
    outer loop
      vertex  3.000000e+001 -1.500000e+001  0.000000e+000
      vertex  3.000000e+001  1.500000e+001 -1.500000e+001
      vertex  3.000000e+001  1.500000e+001  0.000000e+000
    endloop
  endfacet
  facet normal  0.000000e+000 -1.000000e+000  0.000000e+000
    outer loop
      vertex  1.500000e+001 -1.500000e+001 -4.608099e+001
      vertex  1.200000e+001 -1.500000e+001 -4.608099e+001
      vertex  1.500000e+001 -1.500000e+001 -5.208099e+001
    endloop
  endfacet
  facet normal  0.000000e+000 -1.000000e+000  0.000000e+000
    outer loop
      vertex  1.500000e+001 -1.500000e+001 -5.208099e+001
      vertex  1.200000e+001 -1.500000e+001 -4.608099e+001
      vertex  1.200000e+001 -1.500000e+001 -5.208099e+001
    endloop
  endfacet
  facet normal  0.000000e+000  1.000000e+000  0.000000e+000
    outer loop
      vertex  1.200000e+001  1.500000e+001 -4.608099e+001
      vertex  1.500000e+001  1.500000e+001 -4.608099e+001
      vertex  1.200000e+001  1.500000e+001 -5.208099e+001
    endloop
  endfacet
  facet normal  0.000000e+000  1.000000e+000  0.000000e+000
    outer loop
      vertex  1.200000e+001  1.500000e+001 -5.208099e+001
      vertex  1.500000e+001  1.500000e+001 -4.608099e+001
      vertex  1.500000e+001  1.500000e+001 -5.208099e+001
    endloop
  endfacet
  facet normal  1.000000e+000  -0.000000e+000  0.000000e+000
    outer loop
      vertex  1.500000e+001  1.500000e+001 -4.608099e+001
      vertex  1.500000e+001 -1.500000e+001 -4.608099e+001
      vertex  1.500000e+001  1.500000e+001 -5.208099e+001
    endloop
  endfacet
  facet normal  1.000000e+000  0.000000e+000  0.000000e+000
    outer loop
      vertex  1.500000e+001  1.500000e+001 -5.208099e+001
      vertex  1.500000e+001 -1.500000e+001 -4.608099e+001
      vertex  1.500000e+001 -1.500000e+001 -5.208099e+001
    endloop
  endfacet
  facet normal  -0.000000e+000  0.000000e+000  1.000000e+000
    outer loop
      vertex  1.500000e+001  1.500000e+001 -4.608099e+001
      vertex  1.200000e+001  1.500000e+001 -4.608099e+001
      vertex  1.500000e+001 -1.500000e+001 -4.608099e+001
    endloop
  endfacet
  facet normal  0.000000e+000  0.000000e+000  1.000000e+000
    outer loop
      vertex  1.500000e+001 -1.500000e+001 -4.608099e+001
      vertex  1.200000e+001  1.500000e+001 -4.608099e+001
      vertex  1.200000e+001 -1.500000e+001 -4.608099e+001
    endloop
  endfacet
  facet normal -1.000000e+000  0.000000e+000  0.000000e+000
    outer loop
      vertex  1.200000e+001  1.500000e+001 -5.208099e+001
      vertex  1.200000e+001 -1.500000e+001 -5.208099e+001
      vertex  1.200000e+001  1.500000e+001 -4.608099e+001
    endloop
  endfacet
  facet normal -1.000000e+000  -0.000000e+000  0.000000e+000
    outer loop
      vertex  1.200000e+001  1.500000e+001 -4.608099e+001
      vertex  1.200000e+001 -1.500000e+001 -5.208099e+001
      vertex  1.200000e+001 -1.500000e+001 -4.608099e+001
    endloop
  endfacet
  facet normal  -0.000000e+000  0.000000e+000 -1.000000e+000
    outer loop
      vertex  1.200000e+001  1.500000e+001 -5.208099e+001
      vertex  1.500000e+001  1.500000e+001 -5.208099e+001
      vertex  1.200000e+001 -1.500000e+001 -5.208099e+001
    endloop
  endfacet
  facet normal  0.000000e+000  0.000000e+000 -1.000000e+000
    outer loop
      vertex  1.200000e+001 -1.500000e+001 -5.208099e+001
      vertex  1.500000e+001  1.500000e+001 -5.208099e+001
      vertex  1.500000e+001 -1.500000e+001 -5.208099e+001
    endloop
  endfacet
endsolid CATIA STL
